<svg width="2078" height="1969" viewBox="0 0 2078 1969" fill="none" xmlns="http://www.w3.org/2000/svg">
<g style="mix-blend-mode:hard-light" opacity="0.1">
<mask id="mask0_125_726" style="mask-type:luminance" maskUnits="userSpaceOnUse" x="0" y="659" width="1440" height="1310">
<path d="M1440 659.505H0V1968.19H1440V659.505Z" fill="white"/>
</mask>
<g mask="url(#mask0_125_726)">
<path d="M1175.22 1036.49L608.416 145.66L590.752 173.421L1157.56 1064.25L1175.22 1036.49Z" fill="#25B8E4"/>
<path d="M1139.9 1092.01L573.09 201.182L555.426 228.943L1122.23 1119.77L1139.9 1092.01Z" fill="#25B8E4"/>
<path d="M1104.57 1147.53L537.762 256.701L520.098 284.463L1086.91 1175.29L1104.57 1147.53Z" fill="#25B8E4"/>
<path d="M1069.22 1203.06L502.416 312.227L484.752 339.988L1051.56 1230.82L1069.22 1203.06Z" fill="#25B8E4"/>
<path d="M1033.9 1258.6L467.09 367.773L449.426 395.535L1016.23 1286.37L1033.9 1258.6Z" fill="#25B8E4"/>
<path d="M1495.24 584.512L288.227 2481.54L305.89 2509.3L1512.91 612.273L1495.24 584.512Z" fill="#25B8E4"/>
<path d="M1530.57 640.059L323.553 2537.09L341.216 2564.85L1548.23 667.82L1530.57 640.059Z" fill="#25B8E4"/>
<path d="M1565.9 695.581L358.881 2592.61L376.545 2620.37L1583.56 723.342L1565.9 695.581Z" fill="#25B8E4"/>
<path d="M1601.25 751.103L394.229 2648.13L411.892 2675.89L1618.91 778.865L1601.25 751.103Z" fill="#25B8E4"/>
<path d="M1636.57 806.624L429.553 2703.65L447.216 2731.41L1654.23 834.386L1636.57 806.624Z" fill="#25B8E4"/>
<path d="M1671.9 862.15L464.879 2759.18L482.543 2786.94L1689.56 889.911L1671.9 862.15Z" fill="#25B8E4"/>
</g>
</g>
<g opacity="0.75">
<g filter="url(#filter0_f_125_726)">
<ellipse cx="1171.5" cy="710" rx="313.5" ry="310" fill="#007CFF" fill-opacity="0.4"/>
</g>
<g filter="url(#filter1_f_125_726)">
<ellipse cx="1364.5" cy="1008" rx="313.5" ry="310" fill="#007CFF" fill-opacity="0.4"/>
</g>
</g>
<defs>
<filter id="filter0_f_125_726" x="458" y="0" width="1427" height="1420" filterUnits="userSpaceOnUse" color-interpolation-filters="sRGB">
<feFlood flood-opacity="0" result="BackgroundImageFix"/>
<feBlend mode="normal" in="SourceGraphic" in2="BackgroundImageFix" result="shape"/>
<feGaussianBlur stdDeviation="200" result="effect1_foregroundBlur_125_726"/>
</filter>
<filter id="filter1_f_125_726" x="651" y="298" width="1427" height="1420" filterUnits="userSpaceOnUse" color-interpolation-filters="sRGB">
<feFlood flood-opacity="0" result="BackgroundImageFix"/>
<feBlend mode="normal" in="SourceGraphic" in2="BackgroundImageFix" result="shape"/>
<feGaussianBlur stdDeviation="200" result="effect1_foregroundBlur_125_726"/>
</filter>
</defs>
</svg>
