<svg width="24" height="25" viewBox="0 0 24 25" fill="none" xmlns="http://www.w3.org/2000/svg">
<path d="M5 8.94727C4.46957 8.94727 3.96086 8.73655 3.58579 8.36148C3.21071 7.98641 3 7.4777 3 6.94727C3 6.41683 3.21071 5.90812 3.58579 5.53305C3.96086 5.15798 4.46957 4.94727 5 4.94727C5.53043 4.94727 6.03914 5.15798 6.41421 5.53305C6.78929 5.90812 7 6.41683 7 6.94727C7 7.4777 6.78929 7.98641 6.41421 8.36148C6.03914 8.73655 5.53043 8.94727 5 8.94727ZM5 8.94727V16.9473M12 8.94727C11.4696 8.94727 10.9609 8.73655 10.5858 8.36148C10.2107 7.98641 10 7.4777 10 6.94727C10 6.41683 10.2107 5.90812 10.5858 5.53305C10.9609 5.15798 11.4696 4.94727 12 4.94727C12.5304 4.94727 13.0391 5.15798 13.4142 5.53305C13.7893 5.90812 14 6.41683 14 6.94727C14 7.4777 13.7893 7.98641 13.4142 8.36148C13.0391 8.73655 12.5304 8.94727 12 8.94727ZM12 8.94727V16.9473M19 8.94727C18.4696 8.94727 17.9609 8.73655 17.5858 8.36148C17.2107 7.98641 17 7.4777 17 6.94727C17 6.41683 17.2107 5.90812 17.5858 5.53305C17.9609 5.15798 18.4696 4.94727 19 4.94727C19.5304 4.94727 20.0391 5.15798 20.4142 5.53305C20.7893 5.90812 21 6.41683 21 6.94727C21 7.4777 20.7893 7.98641 20.4142 8.36148C20.0391 8.73655 19.5304 8.94727 19 8.94727ZM19 8.94727V10.9473C19 11.4777 18.7893 11.9864 18.4142 12.3615C18.0391 12.7366 17.5304 12.9473 17 12.9473H5M5 16.9473C5.53043 16.9473 6.03914 17.158 6.41421 17.5331C6.78929 17.9081 7 18.4168 7 18.9473C7 19.4777 6.78929 19.9864 6.41421 20.3615C6.03914 20.7366 5.53043 20.9473 5 20.9473C4.46957 20.9473 3.96086 20.7366 3.58579 20.3615C3.21071 19.9864 3 19.4777 3 18.9473C3 18.4168 3.21071 17.9081 3.58579 17.5331C3.96086 17.158 4.46957 16.9473 5 16.9473ZM12 16.9473C12.5304 16.9473 13.0391 17.158 13.4142 17.5331C13.7893 17.9081 14 18.4168 14 18.9473C14 19.4777 13.7893 19.9864 13.4142 20.3615C13.0391 20.7366 12.5304 20.9473 12 20.9473C11.4696 20.9473 10.9609 20.7366 10.5858 20.3615C10.2107 19.9864 10 19.4777 10 18.9473C10 18.4168 10.2107 17.9081 10.5858 17.5331C10.9609 17.158 11.4696 16.9473 12 16.9473Z" stroke="white" stroke-width="2" stroke-linecap="round" stroke-linejoin="round"/>
</svg>
